<?xml version="1.0" encoding="UTF-8" standalone="no"?>
<!-- Created with Inkscape (http://www.inkscape.org/) -->

<svg
   width="512"
   height="512"
   viewBox="0 0 135.46666 135.46667"
   version="1.1"
   id="svg5"
   xml:space="preserve"
   inkscape:version="1.2.2 (b0a8486541, 2022-12-01)"
   sodipodi:docname="icon.svg"
   inkscape:export-filename="icon.png"
   inkscape:export-xdpi="96"
   inkscape:export-ydpi="96"
   xmlns:inkscape="http://www.inkscape.org/namespaces/inkscape"
   xmlns:sodipodi="http://sodipodi.sourceforge.net/DTD/sodipodi-0.dtd"
   xmlns="http://www.w3.org/2000/svg"
   xmlns:svg="http://www.w3.org/2000/svg"><sodipodi:namedview
     id="namedview7"
     pagecolor="#ffffff"
     bordercolor="#000000"
     borderopacity="0.25"
     inkscape:showpageshadow="2"
     inkscape:pageopacity="0.0"
     inkscape:pagecheckerboard="0"
     inkscape:deskcolor="#d1d1d1"
     inkscape:document-units="mm"
     showgrid="false"
     inkscape:zoom="0.67741382"
     inkscape:cx="804.53038"
     inkscape:cy="541.02823"
     inkscape:window-width="2560"
     inkscape:window-height="1367"
     inkscape:window-x="2560"
     inkscape:window-y="0"
     inkscape:window-maximized="1"
     inkscape:current-layer="layer1" /><defs
     id="defs2" /><g
     inkscape:label="Layer 1"
     inkscape:groupmode="layer"
     id="layer1"><g
       id="g2379"
       transform="matrix(1.2254002,0,0,1.2254002,-16.892362,-13.440691)"><rect
         style="fill:#f9f9f9;fill-opacity:1;stroke:none;stroke-width:0.529167;stroke-dasharray:none"
         id="rect2375"
         width="108.62554"
         height="97.809959"
         x="14.746868"
         y="17.337889"
         ry="6.1224627"
         rx="6.1224627" /><path
         id="rect1507"
         style="fill:#0d9488;fill-opacity:1;stroke:none;stroke-width:2"
         d="m 113.58161,108.95202 c 3.04931,0 5.50406,-2.45475 5.50406,-5.50405 V 26.896053 c 0,-3.04931 -2.45475,-5.50406 -5.50406,-5.50406 H 25.151343 c -3.04932,0 -5.50406,2.45475 -5.50406,5.50406 V 54.01068 c 0.43041,2.163111 3.18546,3.187798 6.98304,-0.609782 L 47.202714,28.840643 c 1.502396,-1.5024 2.269504,-1.31517 3.640088,-1.31517 h 30.835587 c 1.892956,0 3.761256,0.64778 2.204516,2.20452 L 40.649109,77.741016 c -1.975915,1.975915 -3.513223,2.428534 -5.941766,0 l -8.34677,-8.504391 c -1.90395,-1.903942 -6.29013,-2.909316 -6.71329,0.675928 v 33.535417 c 0,3.0493 2.45474,5.50405 5.50406,5.50405 z m -3.67471,-4.3682 H 42.782312 c -2.648146,0 -3.422195,-2.87147 0,-6.293672 L 104.72737,31.072977 c 5.71089,-5.710884 8.48527,-1.619534 8.48527,0 l 0.66301,69.379833 c 0,3.30292 -1.96658,4.13101 -3.96875,4.13101 z"
         sodipodi:nodetypes="sssssscccsscccccsssssccccs" /></g></g></svg>
